<svg width="101" height="100" viewBox="0 0 101 100" fill="none" xmlns="http://www.w3.org/2000/svg">
<path d="M57.4416 19.5235C56.7152 18.3328 55.6949 17.3489 54.4786 16.6662C53.2624 15.9836 51.891 15.625 50.4963 15.625C49.1016 15.625 47.7302 15.9836 46.514 16.6662C45.2977 17.3489 44.2774 18.3328 43.551 19.5235L11.1932 71.3422C7.61818 77.0657 11.7213 84.375 18.1401 84.375H82.8557C89.2713 84.375 93.3744 77.0657 89.801 71.3422L57.4416 19.5235Z" fill="url(#paint0_linear_1438_1138)"/>
<path d="M50.4961 39.0625C50.9065 39.0625 51.3128 39.1433 51.692 39.3004C52.0711 39.4574 52.4156 39.6876 52.7058 39.9778C52.996 40.268 53.2262 40.6125 53.3832 40.9916C53.5403 41.3708 53.6211 41.7771 53.6211 42.1875V60.9375C53.6211 61.7663 53.2919 62.5612 52.7058 63.1472C52.1198 63.7333 51.3249 64.0625 50.4961 64.0625C49.6673 64.0625 48.8724 63.7333 48.2864 63.1472C47.7003 62.5612 47.3711 61.7663 47.3711 60.9375V42.1875C47.3711 41.3587 47.7003 40.5638 48.2864 39.9778C48.8724 39.3917 49.6673 39.0625 50.4961 39.0625ZM50.4961 71.875C51.3249 71.875 52.1198 71.5458 52.7058 70.9597C53.2919 70.3737 53.6211 69.5788 53.6211 68.75C53.6211 67.9212 53.2919 67.1263 52.7058 66.5403C52.1198 65.9542 51.3249 65.625 50.4961 65.625C49.6673 65.625 48.8724 65.9542 48.2864 66.5403C47.7003 67.1263 47.3711 67.9212 47.3711 68.75C47.3711 69.5788 47.7003 70.3737 48.2864 70.9597C48.8724 71.5458 49.6673 71.875 50.4961 71.875Z" fill="black"/>
<path fill-rule="evenodd" clip-rule="evenodd" d="M38.2495 16.2129C43.9433 7.0957 57.0495 7.0957 62.7417 16.2129L95.1011 68.0316C101.164 77.741 94.387 90.6254 82.8542 90.6254H18.1386C6.60578 90.6254 -0.172341 77.741 5.89016 68.0316L38.2495 16.2129ZM57.4402 19.5238C56.7136 18.3335 55.6934 17.35 54.4773 16.6675C53.2612 15.9851 51.8901 15.6266 50.4956 15.6266C49.1011 15.6266 47.73 15.9851 46.514 16.6675C45.2979 17.35 44.2776 18.3335 43.5511 19.5238L11.1933 71.3426C7.61828 77.066 11.7214 84.3754 18.1386 84.3754H82.8542C89.2699 84.3754 93.373 77.066 89.7995 71.3426L57.4402 19.5238Z" fill="black"/>
<defs>
<linearGradient id="paint0_linear_1438_1138" x1="50.4967" y1="15.625" x2="50.4967" y2="84.375" gradientUnits="userSpaceOnUse">
<stop stop-color="#FF5A6A"/>
<stop offset="1" stop-color="#940B18"/>
</linearGradient>
</defs>
</svg>
