<svg width="55" height="55" viewBox="0 0 55 55" fill="none" xmlns="http://www.w3.org/2000/svg">
<path d="M38.7613 2.66118V27.6449C38.7613 28.3751 38.4712 29.0754 37.9548 29.5918C37.4385 30.1082 36.7381 30.3982 36.0079 30.3982H32.7015C31.9717 30.3967 31.2723 30.1061 30.7563 29.5901C30.2403 29.074 29.9497 28.3746 29.9481 27.6449V0.156822C28.9871 0.0533521 28.0213 0.00100456 27.0547 0C12.11 0 5.35965e-09 12.11 5.35965e-09 27.0547C-9.80559e-05 31.9806 1.34542 36.8129 3.89127 41.0299C6.43711 45.2469 10.0866 48.6883 14.4455 50.9826V25.2279C14.4471 24.4982 14.7377 23.7988 15.2537 23.2827C15.7697 22.7667 16.4691 22.4761 17.1989 22.4746H20.5077C21.2374 22.4765 21.9366 22.7671 22.4525 23.2831C22.9685 23.799 23.2592 24.4983 23.2611 25.2279V53.8293C24.5178 54.0071 25.7854 54.0971 27.0547 54.0986C41.9935 54.0986 54.1094 41.9887 54.1094 27.0499C54.109 21.9516 52.668 16.9571 49.9526 12.6421C47.2371 8.32712 43.3576 4.86722 38.7613 2.66118ZM18.8509 20.3569C17.869 20.3569 16.9091 20.0657 16.0927 19.5201C15.2763 18.9746 14.64 18.1992 14.2643 17.292C13.8886 16.3848 13.7903 15.3865 13.982 14.4235C14.1736 13.4605 14.6466 12.5759 15.341 11.8817C16.0354 11.1874 16.9201 10.7147 17.8831 10.5233C18.8462 10.3319 19.8444 10.4303 20.7515 10.8063C21.6586 11.1822 22.4339 11.8187 22.9793 12.6352C23.5246 13.4518 23.8156 14.4117 23.8153 15.3936C23.8153 16.0455 23.6869 16.691 23.4374 17.2933C23.1879 17.8955 22.8222 18.4427 22.3612 18.9036C21.9002 19.3645 21.3529 19.7301 20.7506 19.9794C20.1483 20.2288 19.5028 20.357 18.8509 20.3569ZM34.3571 42.4424C33.3751 42.4426 32.4151 42.1516 31.5986 41.6062C30.782 41.0608 30.1455 40.2855 29.7696 39.3783C29.3937 38.4711 29.2953 37.4729 29.4868 36.5097C29.6783 35.5466 30.1512 34.6619 30.8455 33.9676C31.5399 33.2732 32.4246 32.8004 33.3877 32.6089C34.3508 32.4174 35.3491 32.5158 36.2562 32.8917C37.1634 33.2676 37.9388 33.904 38.4842 34.7206C39.0296 35.5372 39.3205 36.4972 39.3203 37.4791C39.3203 38.7955 38.7974 40.0579 37.8666 40.9887C36.9358 41.9195 35.6734 42.4424 34.3571 42.4424Z" fill="white"/>
</svg>
