<svg width="115" height="121" viewBox="0 0 115 121" fill="none" xmlns="http://www.w3.org/2000/svg">
<g clip-path="url(#clip0_379_691)">
<path d="M49.9351 17.7523C48.6566 14.2019 46.8098 11.1485 44.3237 8.52113C41.9086 5.89378 38.8542 3.83451 35.1606 2.2723C31.467 0.781103 27.2761 0 22.446 0H0V58.2987H22.446C26.8499 58.2987 30.8987 57.5886 34.5213 56.2394C38.1439 54.8193 41.1983 52.902 43.8264 50.3457C46.3836 47.7893 48.3724 44.7359 49.7931 41.1144C51.2137 37.564 51.853 33.5164 51.853 29.1139C51.853 25.0663 51.2137 21.3028 49.9351 17.7523Z" fill="white"/>
<path d="M71.9546 95.295C71.6705 94.1589 71.5285 93.0227 71.5285 91.8156C71.5285 89.9693 71.8836 88.1941 72.5939 86.4189C73.3042 84.7146 74.2987 83.1524 75.5773 81.8743C76.8558 80.5251 78.4185 79.531 80.1943 78.7499C81.9701 77.9688 83.8879 77.5427 86.0189 77.5427C87.2975 77.5427 88.505 77.6847 89.6415 77.9688L71.9546 95.295ZM113.721 83.5075L88.6471 107.58C88.1498 108.077 87.5105 108.29 86.9423 108.29C86.303 108.29 85.6637 108.006 85.1665 107.509C84.2431 106.515 84.2431 104.952 85.2375 103.958L111.803 78.5368C110.596 76.1225 109.033 73.9212 107.186 71.933C104.629 69.1636 101.575 66.9623 98.0232 65.3291C94.4716 63.6249 90.4939 62.8438 86.1609 62.8438C81.8991 62.8438 77.9923 63.6249 74.3697 65.2581C70.8181 66.8203 67.6928 68.9506 65.0646 71.6489C62.4364 74.3473 60.4475 77.4007 58.9559 80.8801C57.5353 84.3596 56.7539 88.0521 56.7539 91.8156C56.7539 95.5081 57.4642 99.1295 58.8849 102.609C60.3055 106.088 62.2233 109.213 64.7805 111.911C67.3376 114.61 70.3209 116.811 73.9435 118.515C77.4951 120.219 81.4729 121 85.8058 121C90.0677 121 93.9744 120.219 97.597 118.586C101.149 116.953 104.274 114.823 106.831 112.195C109.388 109.497 111.448 106.444 112.869 102.964C114.289 99.4846 115.071 95.8631 115.071 92.0996C115 89.1882 114.574 86.3479 113.721 83.5075Z" fill="white"/>
<path d="M46.4546 90.5374C51.782 87.9101 54.4812 83.4365 54.4812 78.0398C54.4812 69.2346 47.0229 62.8438 30.9697 62.8438H0V120.929H32.6745C48.6566 120.929 57.2514 115.036 57.2514 104.952C57.2514 97.9934 53.2736 93.0227 46.4546 90.5374Z" fill="white"/>
<mask id="mask0_379_691" style="mask-type:luminance" maskUnits="userSpaceOnUse" x="56" y="0" width="59" height="59">
<path d="M60.1641 29.1844C60.1641 14.9826 71.6712 3.47905 85.8775 3.47905C100.084 3.47905 111.591 14.9826 111.591 29.1844C111.591 43.3863 100.084 54.8898 85.8775 54.8898C71.6712 54.8188 60.1641 43.3153 60.1641 29.1844ZM56.6836 29.1844C56.6836 45.3036 69.7534 58.2983 85.8065 58.2983C101.86 58.2983 114.929 45.2326 114.929 29.1844C114.929 13.1363 101.86 0.0706006 85.8065 0.0706006C69.7534 -0.000408813 56.6836 13.0653 56.6836 29.1844Z" fill="white"/>
</mask>
<g mask="url(#mask0_379_691)">
<path d="M115 0H56.6836V58.2987H115V0Z" fill="url(#paint0_linear_379_691)"/>
</g>
</g>
<defs>
<linearGradient id="paint0_linear_379_691" x1="56.719" y1="29.1527" x2="115.016" y2="29.1527" gradientUnits="userSpaceOnUse">
<stop stop-color="#EC1380"/>
<stop offset="0.25" stop-color="#FAAE2A"/>
<stop offset="0.5" stop-color="#CAABD1"/>
<stop offset="0.75" stop-color="#90D1BD"/>
<stop offset="1" stop-color="#F7ED56"/>
</linearGradient>
<clipPath id="clip0_379_691">
<rect width="115" height="121" fill="white"/>
</clipPath>
</defs>
</svg>
