<svg width="180" height="48" viewBox="0 0 180 48" fill="none" xmlns="http://www.w3.org/2000/svg">
<path fill-rule="evenodd" clip-rule="evenodd" d="M16.9662 9.30017C17.8398 9.30017 18.6939 9.55558 19.4203 10.0341C20.1467 10.5126 20.7129 11.1927 21.0473 11.9885C21.3816 12.7842 21.4691 13.6599 21.2986 14.5046C21.1282 15.3494 20.7075 16.1253 20.0897 16.7344C19.4719 17.3434 18.6848 17.7582 17.8279 17.9262C16.9711 18.0942 16.0829 18.008 15.2757 17.6784C14.4686 17.3488 13.7787 16.7906 13.2933 16.0744C12.8079 15.3583 12.5488 14.5163 12.5488 13.655C12.5505 12.5006 13.0165 11.3939 13.8445 10.5775C14.6726 9.76121 15.7951 9.30186 16.9662 9.30017ZM16.9662 9.81744C17.7369 9.81744 18.4903 10.0428 19.1312 10.4649C19.7721 10.8871 20.2715 11.4871 20.5665 12.1891C20.8614 12.8911 20.9386 13.6635 20.7882 14.4088C20.6379 15.154 20.2667 15.8386 19.7217 16.3759C19.1767 16.9131 18.4824 17.279 17.7264 17.4273C16.9705 17.5755 16.1869 17.4994 15.4749 17.2087C14.7628 16.9179 14.1542 16.4255 13.726 15.7937C13.2978 15.1619 13.0692 14.4191 13.0692 13.6593C13.0698 12.6405 13.4805 11.6637 14.2112 10.9433C14.9419 10.2229 15.9328 9.818 16.9662 9.81744Z" fill="url(#paint0_linear_15_110)"/>
<path fill-rule="evenodd" clip-rule="evenodd" d="M30.9232 28.8901C31.7969 28.8901 32.6509 29.1455 33.3773 29.6241C34.1038 30.1026 34.67 30.7827 35.0043 31.5785C35.3386 32.3742 35.4261 33.2498 35.2557 34.0946C35.0852 34.9393 34.6645 35.7153 34.0467 36.3243C33.429 36.9334 32.6419 37.3481 31.785 37.5162C30.9281 37.6842 30.0399 37.598 29.2328 37.2683C28.4256 36.9387 27.7357 36.3806 27.2503 35.6644C26.7649 34.9483 26.5059 34.1063 26.5059 33.245C26.5079 32.0906 26.9739 30.9841 27.8019 30.1678C28.6298 29.3515 29.7523 28.8921 30.9232 28.8901ZM30.9232 29.4085C31.694 29.4085 32.4475 29.6338 33.0883 30.056C33.7292 30.4782 34.2287 31.0783 34.5236 31.7803C34.8185 32.4824 34.8957 33.2549 34.7452 34.0002C34.5947 34.7455 34.2235 35.43 33.6784 35.9673C33.1333 36.5045 32.4388 36.8703 31.6828 37.0184C30.9268 37.1666 30.1432 37.0903 29.4312 36.7994C28.7191 36.5084 28.1105 36.0159 27.6825 35.3839C27.2544 34.752 27.026 34.0091 27.0262 33.2492C27.028 32.2313 27.4392 31.2557 28.1699 30.5364C28.9005 29.8171 29.8907 29.413 30.9232 29.4127V29.4085Z" fill="url(#paint1_linear_15_110)"/>
<path d="M34.8851 2.36118V24.5284C34.8851 25.1763 34.6241 25.7977 34.1593 26.2559C33.6946 26.714 33.0643 26.9714 32.4071 26.9714H29.4313C28.7746 26.97 28.1451 26.7122 27.6807 26.2543C27.2163 25.7965 26.9547 25.1759 26.9533 24.5284V0.139143C26.0884 0.0473377 25.2192 0.000891311 24.3492 0C10.899 0 4.82368e-09 10.7448 4.82368e-09 24.0048C-8.82504e-05 28.3754 1.21088 32.6629 3.50214 36.4045C5.7934 40.1461 9.0779 43.1996 13.001 45.2352V22.3839C13.0024 21.7364 13.2639 21.1159 13.7284 20.658C14.1928 20.2002 14.8222 19.9424 15.479 19.941H18.4569C19.1136 19.9426 19.7429 20.2006 20.2073 20.6583C20.6716 21.1161 20.9333 21.7365 20.935 22.3839V47.761C22.066 47.9188 23.2069 47.9986 24.3492 48C37.7941 48 48.6985 37.2552 48.6985 24.0005C48.6981 19.4769 47.4012 15.0455 44.9573 11.2169C42.5134 7.38839 39.0219 4.31853 34.8851 2.36118ZM16.9658 18.062C16.0821 18.062 15.2182 17.8036 14.4834 17.3196C13.7487 16.8355 13.176 16.1475 12.8378 15.3426C12.4997 14.5377 12.4113 13.652 12.5838 12.7975C12.7563 11.943 13.1819 11.1582 13.8069 10.5422C14.4318 9.92624 15.228 9.50681 16.0948 9.33697C16.9616 9.16713 17.86 9.25451 18.6764 9.58806C19.4928 9.92161 20.1905 10.4863 20.6813 11.2108C21.1721 11.9353 21.434 12.7871 21.4338 13.6583C21.4338 14.2367 21.3182 14.8094 21.0937 15.3438C20.8691 15.8781 20.54 16.3636 20.1251 16.7726C19.7102 17.1815 19.2176 17.5059 18.6756 17.7271C18.1335 17.9483 17.5525 18.0621 16.9658 18.062ZM30.9214 37.6578C30.0376 37.658 29.1736 37.3998 28.4387 36.9159C27.7038 36.4319 27.1309 35.744 26.7926 34.9391C26.4543 34.1342 26.3658 33.2485 26.5381 32.3939C26.7105 31.5394 27.136 30.7544 27.761 30.1383C28.3859 29.5223 29.1821 29.1027 30.0489 28.9328C30.9157 28.7629 31.8142 28.8502 32.6306 29.1837C33.4471 29.5172 34.1449 30.082 34.6357 30.8065C35.1266 31.531 35.3885 32.3828 35.3883 33.2541C35.3883 34.422 34.9177 35.5421 34.08 36.3679C33.2423 37.1938 32.1061 37.6578 30.9214 37.6578Z" fill="white"/>
<path d="M58.9512 25.6245C58.9512 23.8606 59.3146 22.3166 60.0415 20.9924C60.7341 19.7032 61.7845 18.6348 63.0701 17.9122C64.363 17.1835 65.8404 16.8192 67.5025 16.8192C69.6458 16.8192 71.4192 17.3475 72.8227 18.404C74.2262 19.4604 75.1675 20.9422 75.6466 22.8491H70.9351C70.7136 22.1516 70.2705 21.5428 69.6713 21.1125C69.0787 20.6918 68.3454 20.4815 67.4713 20.4815C66.2215 20.4815 65.2324 20.9276 64.5041 21.8199C63.7758 22.7121 63.412 23.9789 63.4127 25.6203C63.4127 27.2404 63.7765 28.4962 64.5041 29.3877C65.2317 30.2792 66.2208 30.7257 67.4713 30.7271C69.2382 30.7271 70.3928 29.9482 70.9351 28.3904H75.6466C75.1682 30.2357 74.2215 31.7018 72.8065 32.7888C71.3916 33.8757 69.6235 34.4195 67.5025 34.4202C65.8368 34.4202 64.3594 34.0566 63.0701 33.3294C61.7849 32.6062 60.7346 31.538 60.0415 30.2491C59.3146 28.9285 58.9512 27.387 58.9512 25.6245Z" fill="white"/>
<path d="M77.7403 25.5586C77.7403 23.8357 78.0883 22.3076 78.7843 20.9743C79.4803 19.6409 80.4266 18.6142 81.6232 17.894C82.8326 17.1723 84.2229 16.7988 85.6365 16.8159C86.9294 16.8159 88.0578 17.0726 89.0217 17.586C89.9344 18.0521 90.729 18.7146 91.3467 19.5244V17.0995H95.7468V34.1419H91.3467V31.6511C90.7443 32.4867 89.9469 33.1672 89.0217 33.6352C88.0341 34.1578 86.8953 34.4191 85.6053 34.4191C84.1964 34.4341 82.8128 34.0499 81.6189 33.3123C80.423 32.5731 79.4767 31.5325 78.7799 30.1906C78.0832 28.8488 77.7367 27.3047 77.7403 25.5586ZM91.3467 25.6212C91.3467 24.5739 91.1388 23.6761 90.7229 22.9276C90.3361 22.2087 89.7522 21.6114 89.0379 21.2037C88.3456 20.8085 87.5592 20.6018 86.7592 20.6046C85.956 20.5976 85.1663 20.8078 84.4758 21.2123C83.7853 21.6168 83.2206 22.2001 82.8428 22.8989C82.4162 23.6467 82.2029 24.5318 82.2029 25.5543C82.2029 26.5768 82.4162 27.4761 82.8428 28.2522C83.231 28.9814 83.8136 29.5925 84.5279 30.0196C85.2001 30.4232 85.9722 30.636 86.7592 30.6346C87.5592 30.6375 88.3456 30.4307 89.0379 30.0356C89.7509 29.6282 90.3337 29.0316 90.7197 28.3138C91.1377 27.5646 91.3467 26.6671 91.3467 25.6212Z" fill="white"/>
<path d="M116.339 17.1022V34.1446H111.941V31.9916C111.364 32.7411 110.607 33.3381 109.739 33.7293C108.817 34.1538 107.81 34.3694 106.792 34.3602C105.439 34.3602 104.242 34.0769 103.201 33.5105C102.152 32.9378 101.3 32.0704 100.752 31.0186C100.16 29.9218 99.8633 28.6139 99.8633 27.095V17.1022H104.231V26.4864C104.231 27.8403 104.574 28.8819 105.261 29.6113C105.948 30.3406 106.884 30.7028 108.07 30.6979C109.277 30.6979 110.223 30.3343 110.91 29.607C111.597 28.8798 111.94 27.8382 111.94 26.4822V17.1022H116.339Z" fill="white"/>
<path d="M127.262 34.4202C125.848 34.4202 124.579 34.1696 123.455 33.6682C122.331 33.1669 121.441 32.4843 120.786 31.6204C120.144 30.7953 119.768 29.7985 119.709 28.76H124.11C124.15 29.084 124.258 29.3962 124.427 29.6769C124.596 29.9576 124.822 30.2005 125.092 30.3904C125.666 30.8216 126.379 31.0369 127.23 31.0362C128.062 31.0362 128.712 30.8726 129.18 30.5455C129.649 30.2183 129.883 29.797 129.884 29.2815C129.884 28.7292 129.597 28.3139 129.022 28.0356C128.447 27.7573 127.537 27.455 126.292 27.1285C125.215 26.8848 124.156 26.5654 123.125 26.1726C122.305 25.8456 121.577 25.3291 121.002 24.6664C120.409 23.9888 120.113 23.0753 120.113 21.9261C120.107 21.0013 120.396 20.098 120.939 19.344C121.491 18.565 122.281 17.9494 123.31 17.4969C124.338 17.0444 125.55 16.8185 126.946 16.8192C129.005 16.8192 130.648 17.3276 131.875 18.3445C133.102 19.3613 133.779 20.7294 133.906 22.4487H129.722C129.702 22.135 129.615 21.8292 129.466 21.5511C129.318 21.2731 129.111 21.0291 128.86 20.8352C128.35 20.4344 127.667 20.2341 126.813 20.2341C126.023 20.2341 125.415 20.3778 124.988 20.6653C124.786 20.7936 124.62 20.9715 124.508 21.1817C124.396 21.3918 124.341 21.6271 124.348 21.8645C124.348 22.4402 124.64 22.8767 125.222 23.1741C125.805 23.4715 126.71 23.7735 127.938 24.0801C128.989 24.3266 130.021 24.646 131.026 25.0361C131.844 25.3668 132.568 25.8892 133.134 26.5581C133.727 27.2443 134.034 28.1514 134.055 29.2794C134.067 30.2256 133.777 31.1517 133.226 31.9263C132.675 32.7052 131.885 33.3152 130.856 33.7564C129.826 34.1975 128.628 34.4188 127.262 34.4202Z" fill="white"/>
<path d="M153.728 25.2549C153.732 25.8111 153.69 26.3667 153.602 26.9161H140.963C141.067 28.1475 141.504 29.1116 142.273 29.8084C143.041 30.5051 143.988 30.8532 145.113 30.8525C146.737 30.8525 147.892 30.1659 148.578 28.7929H153.289C152.805 30.4134 151.797 31.8336 150.419 32.8376C149.005 33.8941 147.267 34.4224 145.206 34.4224C143.543 34.4224 142.05 34.0588 140.729 33.3315C139.419 32.614 138.346 31.5399 137.638 30.2375C136.9 28.9048 136.531 27.3672 136.531 25.6245C136.531 23.8606 136.895 22.3116 137.623 20.9776C138.315 19.6781 139.378 18.6072 140.681 17.8973C141.993 17.1793 143.501 16.8199 145.206 16.8192C146.851 16.8192 148.323 17.1683 149.624 17.8665C150.905 18.5463 151.957 19.5799 152.65 20.8405C153.368 22.1229 153.727 23.5944 153.728 25.2549ZM149.203 24.0238C149.181 22.9171 148.774 22.0298 147.983 21.3621C147.191 20.6943 146.225 20.3608 145.084 20.3615C144.002 20.3615 143.091 20.6848 142.351 21.3313C141.612 21.9778 141.159 22.8753 140.994 24.0238H149.203Z" fill="white"/>
<path d="M170.198 21.3499V24.9814H156.967V21.3499H170.198Z" fill="white"/>
<path d="M177.318 15.0696C176.546 15.0696 175.906 14.8285 175.397 14.3463C175.155 14.111 174.963 13.8307 174.831 13.5216C174.7 13.2126 174.633 12.8809 174.633 12.5459C174.633 12.2109 174.7 11.8792 174.831 11.5702C174.963 11.2611 175.155 10.9808 175.397 10.7455C175.906 10.2633 176.547 10.0222 177.318 10.0222C178.088 10.0222 178.727 10.2633 179.234 10.7455C179.477 10.9804 179.669 11.2606 179.801 11.5697C179.932 11.8789 180 12.2107 180 12.5459C180 12.8811 179.932 13.213 179.801 13.5221C179.669 13.8312 179.477 14.1114 179.234 14.3463C178.726 14.8285 178.087 15.0696 177.318 15.0696ZM179.472 17.0994V34.1438H175.1V17.1015L179.472 17.0994Z" fill="white"/>
<defs>
<linearGradient id="paint0_linear_15_110" x1="12.5456" y1="13.6593" x2="21.3878" y2="13.6593" gradientUnits="userSpaceOnUse">
<stop stop-color="#EC1A80"/>
<stop offset="0.25" stop-color="#FAAE29"/>
<stop offset="0.5" stop-color="#CBACD2"/>
<stop offset="0.75" stop-color="#90D1BD"/>
<stop offset="1" stop-color="#F6ED59"/>
</linearGradient>
<linearGradient id="paint1_linear_15_110" x1="26.5005" y1="33.2535" x2="35.3438" y2="33.2535" gradientUnits="userSpaceOnUse">
<stop stop-color="#EC1A80"/>
<stop offset="0.25" stop-color="#FAAE29"/>
<stop offset="0.5" stop-color="#CBACD2"/>
<stop offset="0.75" stop-color="#90D1BD"/>
<stop offset="1" stop-color="#F6ED59"/>
</linearGradient>
</defs>
</svg>
